<?xml version="1.0" encoding="utf-8"?>
<!-- Generator: Adobe Illustrator 23.1.1, SVG Export Plug-In . SVG Version: 6.00 Build 0)  -->
<svg version="1.1" id="Layer_1" xmlns="http://www.w3.org/2000/svg" xmlns:xlink="http://www.w3.org/1999/xlink" x="0px" y="0px"
	 viewBox="0 0 463.5 240.6" style="enable-background:new 0 0 463.5 240.6;" xml:space="preserve">
<style type="text/css">
	.st0{opacity:0.63;}
	.st1{fill:#FFFFFF;}
	.st2{fill:#FFFFFF;stroke:#FFFFFF;stroke-width:0.25;stroke-miterlimit:10;}
</style>
<g class="st0">
	<g>
		<g>
			<path class="st1" d="M155.7,114.8v3.1c-1,0.2-1.8,0.7-2.3,1.3c-0.5,0.8-0.8,1.8-0.8,3.3V144v1.1c0,0.5,0,0.8,0.3,1.3
				c0.2,0.5,0.3,0.8,0.7,1.1c0.3,0.3,0.5,0.7,0.8,0.7c0.3,0.2,0.8,0.3,1.3,0.3v3.1c-3.4,0-6.4-0.8-8.8-2.6c-2.1-1.5-3.7-3.6-4.9-6.2
				c-1.1-2.6-1.6-5.7-1.6-9.3c0-2.6,0.3-5.1,1.1-7.3c0.7-2.3,1.8-4.2,3.1-5.9c1.3-1.6,3.1-3.1,4.9-4.1c2-1,3.7-1.5,5.5-1.5
				L155.7,114.8z M157.6,118.1V115c0.8,0.2,1.6,0.3,2.1,0.5c0.5,0.2,1.5,0.5,2.9,1c0.8,0.3,1.5,0.5,1.8,0.5c0.5,0,0.8-0.2,1.1-0.7
				l0.3-0.7c0.2-0.5,0.7-0.7,1.1-0.7c0.5,0,0.8,0.2,1.1,0.5c0.3,0.3,0.3,0.7,0.3,1.3v10.8c0,0.7-0.2,1.1-0.5,1.5s-0.7,0.5-1.1,0.5
				c-0.5,0-0.8-0.2-1-0.3c-0.3-0.3-0.5-0.7-0.7-1.3c-0.3-1.3-0.7-2.4-1.1-3.3c-0.8-1.6-1.6-2.9-2.6-4.1c-0.7-0.7-1.3-1.3-2-1.6
				C159.1,118.4,158.4,118.1,157.6,118.1z M157.8,151.8v-3.1c1.3-0.2,2.8-0.7,4.2-1.5c0.8-0.5,1.5-1.1,2.1-2
				c0.7-0.8,1.1-1.8,1.5-2.8c0.2-0.5,0.3-1,0.7-1.1c0.3-0.3,0.5-0.3,1-0.3c0.5,0,0.8,0.2,1,0.5c0.3,0.3,0.5,0.7,0.5,1.1
				c0,0.8-0.3,1.8-0.8,2.8c-0.7,1.1-1.3,2.1-2.3,3.1c-1.1,1.1-2.3,2-3.6,2.6C160.5,151.3,159.2,151.6,157.8,151.8z"/>
			<path class="st1" d="M196.2,140.7v-20.4c0-0.7-0.2-1.1-0.3-1.3c-0.2-0.2-0.2-0.3-0.3-0.3s-0.5-0.2-1-0.3c-0.7-0.2-1-0.7-1-1.3
				c0-0.5,0.2-0.8,0.5-1c0.3-0.2,0.8-0.3,1.5-0.3h0.7h11.6h0.7l1,0.2c0.3,0.2,0.5,0.3,0.7,0.5c0.2,0.2,0.3,0.5,0.3,0.8
				c0,0.7-0.3,1.1-1,1.3c-0.5,0.2-1,0.3-1,0.3c-0.2,0-0.2,0.2-0.3,0.3c-0.2,0.3-0.3,0.7-0.3,1.3v21.8c0,1.5,0,2.4,0.2,3.1
				c0.2,0.7,0.2,1.1,0.5,1.6c0.2,0.5,0.5,0.7,0.8,1c0.3,0.2,0.8,0.5,1.6,0.7v3.4h-0.7c-2.3,0-4.1-0.2-5.5-0.7
				c-1.8-0.5-3.3-1.1-4.6-2.1s-2.3-2-2.8-3.1C196.6,144.8,196.2,143,196.2,140.7z M213.2,151.8v-3.4c1.8-0.2,3.3-1,4.4-2.1
				c1.3-1.3,2-3.4,2-5.9v-16.9c0-2.4-1-4.1-2.8-5.1c-0.5-0.3-1-0.5-1.1-0.7c-0.2-0.2-0.3-0.5-0.3-0.8c0-0.5,0.2-0.8,0.5-1
				c0.3-0.2,0.8-0.3,1.6-0.3h6.4c0.5,0,1,0,1.1,0c0.2,0,0.3,0.2,0.5,0.2c0.5,0.3,0.7,0.7,0.7,1.1c0,0.3-0.2,0.7-0.5,1
				c-0.2,0.2-0.5,0.3-1.1,0.7c-0.8,0.5-1.3,1-1.8,2c-0.5,0.8-0.7,1.8-0.7,2.9v16.9c0,2.9-0.7,5.4-2,7.2c-1,1.3-2.3,2.4-4.1,3.4
				C215.3,151.3,214.3,151.6,213.2,151.8z"/>
			<path class="st1" d="M261.1,115.6v35.5h-11.6h-0.7c-0.7,0-1.1-0.2-1.5-0.3s-0.5-0.5-0.5-1c0-0.7,0.3-1.1,1-1.5
				c0.5-0.2,1-0.3,1-0.3c0.2,0,0.2-0.2,0.3-0.3c0.2-0.3,0.3-0.7,0.3-1.3v-26.1c0-0.7-0.2-1.1-0.3-1.3c-0.2-0.2-0.2-0.3-0.3-0.3
				c-0.2,0-0.5-0.2-1-0.3c-0.7-0.2-1-0.7-1-1.5c0-0.5,0.2-0.8,0.5-1c0.3-0.2,0.8-0.3,1.5-0.3h0.7
				C249.5,115.6,261.1,115.6,261.1,115.6z M263.4,134.5v-2.9c1-0.5,1.8-1,2.3-1.6c0.5-0.5,0.8-1.3,1.1-2.3c0.2-0.7,0.3-1.1,0.5-1.3
				c0.2-0.3,0.5-0.3,1-0.3s1,0.2,1.1,0.7c0.2,0.2,0.2,0.7,0.2,1.5v9.9c0,0.8-0.2,1.3-0.3,1.6c-0.2,0.3-0.5,0.5-1,0.5s-0.7-0.2-1-0.3
				c-0.2-0.3-0.5-0.7-0.5-1.3c-0.3-1.1-0.7-2.1-1.3-2.8C264.8,135.2,264.2,134.7,263.4,134.5z M263.4,115.6h10.4v9.3
				c0,0.5-0.2,1-0.3,1.1c-0.2,0.3-0.5,0.3-1,0.3c-0.3,0-0.7-0.2-0.8-0.2c-0.2-0.2-0.3-0.5-0.5-1c-0.7-2-1.6-3.6-2.9-4.6
				c-1.3-1.1-2.9-1.6-4.9-2L263.4,115.6L263.4,115.6z M263.5,151.2v-2.8c1.1-0.2,2.1-0.5,2.8-0.7c0.8-0.3,1.5-0.8,2.3-1.5
				c0.7-0.7,1.3-1.3,1.8-2s0.8-1.6,1.3-2.8c0.2-0.5,0.3-1,0.7-1.1c0.2-0.2,0.5-0.3,0.8-0.3c0.5,0,0.8,0.2,1,0.5s0.3,0.8,0.3,1.5v9
				C274.5,151,263.5,151,263.5,151.2z"/>
			<path class="st1" d="M314.5,115.6v30.6c0,0.7,0.2,1.1,0.3,1.5c0.2,0.2,0.3,0.3,0.3,0.3c0.2,0,0.5,0.2,1.1,0.3
				c0.8,0.2,1.3,0.7,1.3,1.5c0,0.5-0.2,0.8-0.7,1.1c-0.3,0.2-0.8,0.3-1.6,0.3h-0.8H303h-0.7c-0.7,0-1.1-0.2-1.5-0.3
				c-0.3-0.2-0.5-0.5-0.5-1c0-0.7,0.3-1.1,1-1.5c0.5-0.2,1-0.3,1-0.3c0.2,0,0.2-0.2,0.3-0.3c0.2-0.3,0.3-0.7,0.3-1.3v-26.1
				c0-0.7-0.2-1.1-0.3-1.3c-0.2-0.2-0.2-0.3-0.3-0.3s-0.5-0.2-1-0.3c-0.7-0.2-1-0.7-1-1.5c0-0.5,0.2-0.8,0.5-1
				c0.3-0.2,0.8-0.3,1.5-0.3h0.7h11.6V115.6z M322.5,133.7c1.6,0.3,2.8,0.5,3.7,0.8c0.8,0.3,1.6,0.7,2.3,1.1c0.7,0.5,1.3,1.1,1.6,2
				s0.7,1.5,0.7,2.3v5.4c0,0.5,0.2,0.8,0.5,0.8c0.2,0,0.3,0,0.3-0.2c0.2-0.2,0.2-0.2,0.3-0.5c0.5-0.7,0.8-0.8,1.3-0.8
				c0.3,0,0.7,0.2,0.8,0.5c0.3,0.3,0.5,0.7,0.5,1c0,0.5-0.3,1.1-0.8,2s-1.1,1.5-2,2.1c-0.7,0.5-1.5,1-2.3,1.3
				c-0.8,0.3-1.8,0.3-2.9,0.3c-2.3,0-4.1-0.7-5.4-2c-1.3-1.3-2-3.1-2-5.5v-4.4c0-1,0-1.5,0-1.6c-0.2-0.7-0.3-1.3-0.7-1.8
				c-0.5-0.7-1.3-1-2.1-1.1v-2.8c1-0.2,1.6-0.3,2-0.7c0.3-0.3,0.7-0.7,0.7-1.1c0.2-0.5,0.2-1,0.2-1.8v-6.8c0-1.1-0.2-2-0.7-2.4
				s-1.1-1-2.3-1.3v-2.9h0.7c2,0,3.6,0,4.9,0.2c2,0.2,3.7,0.8,5.4,2c2.3,1.6,3.4,3.9,3.4,6.8c0,2.4-0.8,4.4-2.3,6
				c-0.7,0.7-1.5,1.1-2.3,1.6C325.5,132.7,324.2,133.2,322.5,133.7z"/>
			<path class="st1" d="M367.8,115.6v35.5h-11.6h-0.7c-0.7,0-1.1-0.2-1.5-0.3s-0.5-0.5-0.5-1c0-0.7,0.3-1.1,1-1.5
				c0.7-0.2,1-0.3,1-0.3c0.2,0,0.2-0.2,0.3-0.3c0.2-0.3,0.3-0.7,0.3-1.3v-26.1c0-0.7-0.2-1.1-0.3-1.3c-0.2-0.2-0.2-0.3-0.3-0.3
				c-0.2,0-0.5-0.2-1-0.3c-0.7-0.2-1-0.7-1-1.5c0-0.5,0.2-0.8,0.5-1c0.3-0.2,0.8-0.3,1.5-0.3h0.7
				C356.3,115.6,367.8,115.6,367.8,115.6z M370,134.5v-2.9c1-0.5,1.8-1,2.3-1.6c0.5-0.5,0.8-1.3,1.1-2.3c0.2-0.7,0.3-1.1,0.5-1.3
				c0.2-0.3,0.5-0.3,1-0.3s1,0.2,1.1,0.7c0.2,0.2,0.2,0.7,0.2,1.5v9.9c0,0.8-0.2,1.3-0.3,1.6c-0.2,0.3-0.5,0.5-1,0.5
				c-0.3,0-0.7-0.2-1-0.3c-0.2-0.3-0.5-0.7-0.5-1.3c-0.3-1.1-0.7-2.1-1.3-2.8C371.6,135.2,370.9,134.7,370,134.5z M370.1,115.6h10.4
				v9.3c0,0.5-0.2,1-0.3,1.1c-0.2,0.3-0.5,0.3-1,0.3c-0.3,0-0.7-0.2-0.8-0.2c-0.2-0.2-0.3-0.5-0.5-1c-0.7-2-1.6-3.6-2.9-4.6
				c-1.3-1.1-2.9-1.6-4.9-2L370.1,115.6L370.1,115.6z M370.1,151.2v-2.8c1.1-0.2,2.1-0.5,2.8-0.7c0.7-0.3,1.5-0.8,2.3-1.5
				c0.7-0.7,1.3-1.3,1.8-2s0.8-1.6,1.3-2.8c0.2-0.5,0.3-1,0.7-1.1c0.2-0.2,0.5-0.3,0.8-0.3c0.5,0,0.8,0.2,1,0.5
				c0.2,0.3,0.3,0.8,0.3,1.5v9C381,151,370.1,151,370.1,151.2z"/>
			<path class="st1" d="M422.8,120.2l13,26.6c0.3,0.7,0.7,1,1.3,1.3c0.5,0.3,0.8,0.5,1,0.7c0.2,0.2,0.2,0.5,0.2,0.8
				c0,0.5-0.2,0.8-0.5,1.1c-0.3,0.3-1,0.3-1.8,0.3h-12.2c-1,0-1.5,0-1.8-0.2c-0.7-0.3-1-0.7-1-1.3c0-0.2,0-0.5,0.2-0.7
				s0.3-0.3,0.7-0.7c0.7-0.5,0.8-0.8,0.8-1.1s-0.2-0.7-0.5-1.3L409.4,120c-0.2-0.5-0.5-0.8-0.7-1c-0.2-0.3-0.5-0.5-1-0.7
				c-0.3-0.2-0.7-0.3-0.7-0.5c-0.2-0.2-0.2-0.5-0.2-0.8c0-0.5,0.2-0.8,0.5-1.1c0.3-0.2,1-0.3,2-0.3h12.1c0.8,0,1.5,0.2,2,0.3
				c0.3,0.2,0.7,0.7,0.7,1.1s-0.3,1-0.8,1.3c-0.3,0.2-0.5,0.3-0.5,0.5c-0.2,0.2-0.2,0.3-0.2,0.5S422.8,119.9,422.8,120.2z
				 M416.4,138.4l1.5,2.9l-1.6,2.6c-0.7,1-0.8,1.8-0.8,2.3c0,0.8,0.5,1.5,1.5,1.8c0.5,0.2,0.8,0.5,1.1,0.7c0.2,0.2,0.3,0.5,0.3,0.8
				c0,0.5-0.2,0.8-0.7,1.1c-0.2,0.2-0.3,0.2-0.5,0.2c-0.2,0-0.5,0-1.1,0h-6.7c-0.5,0-1-0.2-1.3-0.3c-0.3-0.2-0.5-0.5-0.5-1
				c0-0.3,0.2-0.7,0.3-0.8c0.2-0.2,0.5-0.5,1-0.7c1.3-0.5,2.3-1.3,3.1-2.4L416.4,138.4z M428.6,127.4l-1.5-2.9l1.5-2.4
				c0.3-0.5,0.5-1.1,0.5-1.5c0-0.3-0.2-0.8-0.3-1.1c-0.2-0.3-0.5-0.7-1-0.8l-1-0.5c-0.2-0.2-0.3-0.3-0.5-0.5
				c-0.2-0.3-0.2-0.5-0.2-0.7c0-0.5,0.2-0.8,0.5-1c0.3-0.3,0.7-0.3,1.1-0.3h7.5c0.5,0,0.8,0.2,1.1,0.3c0.3,0.2,0.5,0.5,0.5,0.8
				c0,0.5-0.2,0.8-0.5,1.1c-0.2,0.2-0.5,0.3-1.1,0.7c-1.3,0.7-2.3,1.6-3.1,2.9L428.6,127.4z"/>
		</g>
		<polygon class="st1" points="126.2,115.6 119,115.6 89,154.7 109.4,181.3 116.5,181.3 96.2,154.7 99.9,149.8 124.4,181.3 
			131.5,181.3 103.7,145 		"/>
		<polygon class="st1" points="81,115.6 74,115.6 89,135.3 85.3,140.2 66.2,115.6 59,115.6 80,143 80,143 85.1,149.7 96.2,135.3 		
			"/>
		<path class="st1" d="M94.7,85.2"/>
		<path class="st1" d="M30,116.6c5.1-13.9,16.3-21.5,29.7-21.5c4.1,0,8,0.5,11.6,1.8c0,0,4.1,1.3,6,3.3l0,0h24.9l0,0h5.1
			c-5.5-9.5-13.2-15.3-13.2-15.3C80.5,72.3,60,72.3,60,72.3c-7.3,0-13.9,0.8-23,5.1C17.6,86.9,5.9,105.5,5.9,127
			c-0.7,12.7,4.6,22.8,4.6,22.8c9.8,19.4,28.2,31.8,49.5,31.8h1.3c11.4,0,22.2-3.9,32.1-11.7l-2.6-3.4c-9.9,6.7-19.2,10.1-27.7,10.1
			h-5.4c-9,0-17.9-3.3-27.1-9.8C17.3,156,10.8,142.7,10.8,127c0-10.1,3.4-20,10.1-29.7c1.5-1.6,2.8-3.3,4.2-4.7l0,0
			c0,0,3.1-3.6,8.5-7.2c0.2,0,0.2-0.2,0.3-0.2c0.3-0.2,0.7-0.5,1-0.7c2.8-1.8,5.5-3.1,8.3-4.2c0,0,8.8-4.2,24.8-2.3
			c7.3,1,14.7,4.1,21.7,9.5l0,0l0,0c0,0,4.1,3.3,7.8,7.7H77.3c-0.8-0.5-1.1-0.7-1.1-0.7c-6.5-3.1-11.4-3.9-15.6-4.1
			C51.9,90.2,45,93.6,45,93.6C31.6,101,23.7,112.7,23.7,127c0,4.9,1.1,10.3,3.6,15.8c10.4,22,33.1,21.2,33.1,21.2s10.3,0.3,18.7-5.4
			c0,0,3.4-2.3,3.7-2.8l-3.1-3.9c0,0-13,11.1-28.2,5.9c-23.6-7.3-23-30-23-30C28.2,123.9,28.9,120.2,30,116.6z"/>
		<path class="st1" d="M74.2,164.4"/>
	</g>
	<g>
		<g>
			<path class="st2" d="M161.9,181.3v-10.9h0.7v10.3h3.1v0.7C165.6,181.3,161.9,181.3,161.9,181.3z"/>
			<path class="st2" d="M179.9,181.3v-10.9h5.2v0.7h-4.6v3.9h4.6v0.7h-4.6v5.1h4.6v0.7C185.2,181.3,179.9,181.3,179.9,181.3z"/>
			<path class="st2" d="M207.8,181.3l-1.3-3.3h-4.9l-1.3,3.3h-0.7l4.4-11.2l4.4,11.2H207.8z M204.1,171.7l-2.3,5.7h4.4L204.1,171.7z
				"/>
			<path class="st2" d="M224.3,170.9v10.3h-0.7v-10.3h-2.4v-0.7h5.4v0.7H224.3z"/>
			<path class="st2" d="M247.7,181.3v-5.7h-6v5.7h-0.7v-10.9h0.7v4.6h6v-4.6h0.7v10.9H247.7z"/>
			<path class="st2" d="M263.4,181.3v-10.9h5.2v0.7H264v3.9h4.6v0.7H264v5.1h4.6v0.7C268.6,181.3,263.4,181.3,263.4,181.3z"/>
			<path class="st2" d="M288.8,181.3l-3.4-5.4h-1.1v5.4h-0.7v-10.9h2.4c0.5,0,0.8,0,1.1,0.2c0.3,0.2,0.7,0.3,1,0.5
				c0.3,0.2,0.5,0.5,0.7,0.8c0.2,0.3,0.2,0.7,0.2,1.1c0,0.5,0,0.8-0.2,1.3c-0.2,0.3-0.3,0.7-0.7,0.8s-0.7,0.3-1,0.5
				c-0.3,0.2-0.8,0.2-1.1,0.2l3.4,5.4L288.8,181.3L288.8,181.3z M288.3,172.2c-0.2-0.3-0.3-0.5-0.5-0.7c-0.2-0.2-0.5-0.3-0.8-0.3
				c-0.3-0.2-0.7-0.2-1-0.2h-2v4.2h2.1c0.7,0,1.1-0.2,1.6-0.5c0.3-0.3,0.7-1,0.7-1.6C288.5,172.8,288.3,172.5,288.3,172.2z"/>
			<path class="st2" d="M329.4,179.7c-1,1.1-2.1,1.6-3.6,1.6h-3.6v-10.9h3.6c1.5,0,2.6,0.5,3.6,1.6c0.8,1,1.3,2.3,1.3,3.7
				C330.7,177.4,330.2,178.7,329.4,179.7z M328.9,172.5c-0.8-1-1.8-1.5-3.1-1.5h-2.9v9.6h2.9c1.1,0,2.1-0.5,2.9-1.3
				c0.8-1,1.3-2.1,1.3-3.6C330,174.6,329.5,173.5,328.9,172.5z"/>
			<path class="st2" d="M345.3,181.3v-10.9h5.2v0.7H346v3.9h4.6v0.7H346v5.1h4.6v0.7C350.6,181.3,345.3,181.3,345.3,181.3z"/>
			<path class="st2" d="M369.1,181.3c-0.3,0.2-0.8,0.2-1.5,0.2c-1.6,0-2.8-0.8-3.3-2.3l0.7-0.2c0.3,1.3,1.3,2,2.6,2
				c0.8,0,1.3-0.2,1.8-0.5s0.7-1,0.7-1.8c0-0.7-0.3-1.3-0.8-1.8c-0.2-0.2-0.3-0.3-0.7-0.5c-0.3-0.2-0.7-0.3-1.1-0.5
				c-0.8-0.3-1.5-0.7-1.8-1c-0.5-0.5-0.8-1.1-0.8-1.8c0-0.8,0.3-1.3,0.8-1.8c0.5-0.5,1.1-0.7,2-0.7c1.3,0,2.1,0.5,2.8,1.5l-0.7,0.3
				c-0.2-0.3-0.5-0.7-0.7-0.8c-0.3-0.2-0.8-0.3-1.3-0.3c-0.7,0-1.1,0.2-1.5,0.5c-0.5,0.3-0.7,0.8-0.7,1.5c0,0.5,0.2,1,0.7,1.3
				c0.3,0.2,0.8,0.5,1.5,0.8c0.5,0.2,0.8,0.5,1.3,0.7c0.3,0.2,0.7,0.5,0.8,0.7c0.7,0.5,0.8,1.3,0.8,2.1
				C370.8,179.8,370.3,180.6,369.1,181.3z"/>
			<path class="st2" d="M385.4,181.3v-10.9h0.7v10.9H385.4z"/>
			<path class="st2" d="M410.7,179.8c-1,1.1-2.4,1.6-4.1,1.6c-1.6,0-2.9-0.5-4.1-1.5c-1-1-1.6-2.4-1.6-4.1c0-1.6,0.5-2.9,1.6-3.9
				c1-1.1,2.4-1.6,4.1-1.6c2,0,3.4,0.8,4.6,2.3l-0.5,0.3c-1-1.3-2.3-2-4.1-2c-1.5,0-2.6,0.5-3.6,1.5c-1,1-1.5,2.1-1.5,3.6
				c0,1.5,0.5,2.6,1.5,3.6c1,1,2.1,1.5,3.6,1.5s2.8-0.5,3.7-1.5c0.7-0.8,1.1-1.6,1.3-2.6h-3.6v-0.7h4.2
				C412.2,177.4,411.7,178.9,410.7,179.8z"/>
			<path class="st2" d="M427.6,172.2v9.3H427v-10.9l8.1,9.5v-9.5h0.7v11.1L427.6,172.2z"/>
			<path class="st2" d="M455.5,181.3c-0.3,0.2-0.8,0.2-1.5,0.2c-1.6,0-2.8-0.8-3.3-2.3l0.7-0.2c0.3,1.3,1.3,2,2.6,2
				c0.8,0,1.5-0.2,1.8-0.5c0.5-0.3,0.7-1,0.7-1.8c0-0.7-0.3-1.3-0.8-1.8c-0.2-0.2-0.3-0.3-0.7-0.5c-0.3-0.2-0.7-0.3-1.1-0.5
				c-0.8-0.3-1.5-0.7-1.8-1c-0.5-0.5-0.8-1.1-0.8-1.8c0-0.8,0.3-1.3,0.8-1.8c0.5-0.5,1.1-0.7,2-0.7c1.3,0,2.1,0.5,2.8,1.5l-0.7,0.3
				c-0.2-0.3-0.5-0.7-0.7-0.8c-0.3-0.2-0.8-0.3-1.5-0.3c-0.7,0-1.1,0.2-1.5,0.5c-0.5,0.3-0.7,0.8-0.7,1.5c0,0.5,0.2,1,0.7,1.3
				c0.2,0.2,0.8,0.5,1.5,0.8c0.5,0.2,0.8,0.5,1.3,0.7c0.3,0.2,0.7,0.5,0.8,0.7c0.7,0.5,0.8,1.3,0.8,2.1
				C457.3,179.8,456.8,180.6,455.5,181.3z"/>
		</g>
	</g>
</g>
</svg>
