<svg id="Layer_1" data-name="Layer 1" xmlns="http://www.w3.org/2000/svg" viewBox="0 0 303.75 310.5">
    <defs>
        <style>
            .cls-2{fill:#ffffff}
        </style>
    </defs>
    <title>
        logo
    </title>
    <path class="cls-2" d="M219.17,83.92c-17.37.92-34.3.35-51,.53-14.78-11.88-49.38-13.88-68.82,7.12-19.1,20.63-20.84,52.16-3.65,73.28,19,23.41,46.24,26.45,76,8.4,2.1,1.57,3.14,4.07,5.31,6.15A50.79,50.79,0,0,1,159.53,190c-38.12,13.24-77.59-10.6-83.33-50.62-3.9-27.26,7.33-48,29.64-62.77,19.19-12.71,39.46-12,59.78-2.35a12.61,12.61,0,0,0,5.7,1.32c10.07-.05,20.14,0,30.38,0-.12-.59-.08-1-.28-1.23-13.94-15.56-30.74-25.95-51.84-28.49-29.8-3.58-54.77,5.89-74.67,28.26-29.44,33.09-30.18,82.24,2.65,115.63,14.41,14.66,31.67,23.58,52.27,25.47,21,1.94,40.27-3.23,57.8-14.91,1-.69,2.09-1.34,3.06-2,1.48.47,1.89,1.77,2.69,2.66s1.34,1.78,2,2.67c-21.93,19.8-58.85,27.67-93.55,13.06-29.54-12.44-63.25-47.12-56.23-98.81,5.55-40.88,37-74.79,76.76-80.57C164.56,31.17,199.26,50.47,219.17,83.92Z"/>
    <path class="cls-2" d="M252.26,111.14l-38.74,50.34,48.1,62.6H249.06l-42.11-54c-2.26,2.91-4.28,5.53-6.39,8.26l35.05,45.62H223.26l-35.2-45.73,51.72-67.06Z"/>
    <path class="cls-2" d="M136.3,111h12.64l32.87,42.18,6.34-8.36c-8.58-11.21-17-22.25-25.81-33.74h12.34l26,33.89-19.08,24.81Z"/>
    <path class="cls-2" d="M245.42,264.86c-1.06-5.2-3.91-9.57-6.51-14.06-.24-.4-.55-.77-1.21-1.69a28,28,0,0,1,11.5-.41c2.32,9.38,7.43,16.63,11.22,25.06-3.84,1.24-7.84.57-12.36.35,1.93-3.8.05-6.19-1.91-8.55l0,.08-.14-1-.69.18Z"/>
    <path class="cls-2" d="M170.84,270.79c.45,1.25,2.3,1.24,2.19,3.07a30.21,30.21,0,0,1-11.63.14c2.13-8.53,1.77-16.59.28-25.29,2.47-.81,5.65-.12,9.16-.29Z"/>
    <path class="cls-2" d="M83.52,249.19c4.25-1.14,8.07-.78,11.44-.66-1.6,8.87-2.33,17.27.81,25.61-6.22,1.32-10.25-1.74-10.34-7.92-.06-3.6,0-7.2,0-10.8C85.39,253.26,86,251,83.52,249.19Z"/>
    <path class="cls-2" d="M132.24,274.26a47.27,47.27,0,0,1-9.2-.1,62,62,0,0,0-.12-25.35c2.72-1.08,5.91,0,9.32-.51Z"/>
    <path class="cls-2" d="M199.2,273.91c3-4.2,3-20.91.12-25,3.43-.93,6.66-.38,10.06-.42v25.8C206.13,274.33,202.9,274.73,199.2,273.91Z"/>
    <path class="cls-2" d="M174.6,253c-.5-1.9-2.34-2.2-1.92-3.78,3.75-1.49,8.12-.07,9.76,3.17s.53,6-3.93,9.12c3.72,1.55,5.1,4.38,4.65,7.85.49,1.45,1.87-.21,2.28,1.54,0-.15.1.27-.05.56-1.57,3-4.16,3.79-7.23,3.05s-3.56-3.19-3.47-5.82,0-4.94-2.54-6.76C175.73,259.3,174.53,255.82,174.6,253Z"/>
    <path class="cls-2" d="M54.11,270.32c.35,1.74,2.89,2.05,1.73,4-6.42.25-10.48-4.24-10.75-11.82-.3-8.43,3.81-14,10.57-14.3.09,1.9.09,1.9-1.55,3.7Z"/>
    <path class="cls-2" d="M99.32,249.13c2.73-1.15,5.07-.86,8-.26-5,5.38-2.33,11.68-2.94,17.5-.52,4.95-1.7,6.82-6.13,8.11-.75-1.11-.77-2,.66-2.6,2.88-1.21,3.45-3.65,3.4-6.45s0-5.48,0-8.22C102.27,252.58,102.27,252.58,99.32,249.13Z"/>
    <path class="cls-2" d="M58.1,248.08l4,1.13c.86.3,1.55-1.25,2.71-1,1.29.9,1.08,7.64-.74,10.86-1.11-4.45-3.78-7.27-6.46-10.09C57.51,249,57.89,248.45,58.1,248.08Z"/>
    <path class="cls-2" d="M141.06,265.52c1.66,3.32.89,5.9,1,8.7-2.78-.13-5.57,1.09-8.81-1.38C137.27,271.54,139.23,269.11,141.06,265.52Z"/>
    <path class="cls-2" d="M218.26,266.13c1.15,2.82.9,5.34.7,8.06h-7.9C213.14,270.8,217.21,269.78,218.26,266.13Z"/>
    <path class="cls-2" d="M246.15,265.56l-2,5,2.07,3c-2.78,1.3-5.26,1.13-8.93-.25,4.59-1.8,5.16-6.1,8.14-8.45l-.06,0c-.4,1-.15,1.26.83.81Z"/>
    <path class="cls-2" d="M140.8,256.36c-1.12-3.52-4.57-4.72-7.44-7.35,3.13-.93,5.42-.52,7.88-.57A14,14,0,0,1,140.8,256.36Z"/>
    <path class="cls-2" d="M218,256.44c-.81-3.79-5.12-4.44-6.93-7.87h7.79C219.1,251.26,219.3,253.75,218,256.44Z"/>
    <path class="cls-2" d="M133.66,261.11l4.35-5.9c.86,4.23.37,7.49.48,11.46C136,264.91,135.37,262.74,133.66,261.11Z"/>
    <path class="cls-2" d="M215.45,256.31a33.72,33.72,0,0,1-.14,10.2c-2.11-1.66-2.64-3.89-4.51-5.13l3.74-5.31Z"/>
    <path class="cls-2" d="M253.81,252.06c0-1.26-1.77-1.43-1.53-3,2.3-1.13,4.72-.7,8.4-.1a23.23,23.23,0,0,0-6.64,7.6C252.88,254.72,252.88,254.72,253.81,252.06Z"/>
    <path class="cls-2" d="M57.57,274.15c1.65-3,5.8-3.66,6.3-8C66.51,269.91,63.12,273.87,57.57,274.15Z"/>
    <path class="cls-1" d="M246.19,265.64c-1,.45-1.23.15-.83-.81l.69-.18Z"/>
</svg>
