<?xml version="1.0" encoding="utf-8"?>
<!-- Generator: Adobe Illustrator 23.0.1, SVG Export Plug-In . SVG Version: 6.00 Build 0)  -->
<svg version="1.1" id="Layer_1" xmlns="http://www.w3.org/2000/svg" xmlns:xlink="http://www.w3.org/1999/xlink" x="0px" y="0px"
	 viewBox="0 0 50 50" style="enable-background:new 0 0 50 50;" xml:space="preserve">
<style type="text/css">
	.st0{fill:#51230A;}
</style>
<g>
	<g>
		<polygon class="st0" points="46.07,20.41 43.44,20.41 32.43,34.69 39.92,44.44 42.53,44.44 35.06,34.72 36.43,32.94 45.38,44.44 
			48.03,44.44 37.81,31.14 		"/>
		<polygon class="st0" points="29.55,20.41 26.95,20.41 32.46,27.6 31.08,29.38 24.1,20.41 21.44,20.41 29.14,30.44 29.18,30.44 
			31.04,32.88 35.09,27.63 		"/>
		<path class="st0" d="M34.51,9.25"/>
		<path class="st0" d="M10.82,20.76c1.88-5.09,5.94-7.89,10.85-7.89c1.46,0,2.94,0.16,4.22,0.64c0,0,1.46,0.51,2.2,1.18v0.01
			l9.15-0.01l0,0h1.86c-2.01-3.43-4.82-5.62-4.82-5.62c-4.93-4.62-12.45-4.61-12.45-4.61c-2.69,0-5.09,0.32-8.43,1.83
			C6.29,9.78,1.99,16.61,1.99,24.46c-0.25,4.66,1.7,8.36,1.7,8.36c3.56,7.12,10.3,11.62,18.15,11.62h0.45
			c4.2,0,8.12-1.43,11.75-4.26l-0.97-1.26c-3.65,2.44-7.04,3.67-10.17,3.67h-1.99c-3.27,0-6.58-1.18-9.92-3.56
			c-4.87-3.96-7.3-8.82-7.3-14.57c0-3.71,1.24-7.33,3.72-10.85c0.51-0.61,1.03-1.18,1.55-1.72H8.95c0,0,1.12-1.29,3.13-2.63
			c0.04-0.03,0.08-0.05,0.13-0.08c0.12-0.08,0.24-0.15,0.36-0.23c0.99-0.63,2.01-1.14,3.05-1.53c0,0,3.23-1.55,9.07-0.83
			c2.7,0.33,5.35,1.5,7.93,3.45l0,0c0,0,0.01,0.01,0.03,0.02c0,0,1.48,1.19,2.87,2.79h-7.37c-0.27-0.16-0.44-0.26-0.44-0.26
			c-2.4-1.16-4.16-1.46-5.74-1.51c-3.17-0.11-5.68,1.16-5.68,1.16c-4.89,2.71-7.83,6.98-7.83,12.22c0,1.79,0.43,3.74,1.29,5.77
			c3.81,8.07,12.09,7.74,12.09,7.74s3.77,0.12,6.85-1.96c0,0,1.23-0.83,1.36-1.03l-1.1-1.41c0,0-4.78,4.05-10.3,2.16
			c-8.65-2.7-8.4-10.98-8.4-10.98C10.22,23.42,10.44,22.08,10.82,20.76z"/>
		<path class="st0" d="M27.03,38.25"/>
	</g>
</g>
</svg>
